<?xml version="1.0" encoding="utf-8"?>
<!-- Generator: Adobe Illustrator 21.1.0, SVG Export Plug-In . SVG Version: 6.00 Build 0)  -->
<svg version="1.1" id="Calque_1" xmlns="http://www.w3.org/2000/svg" xmlns:xlink="http://www.w3.org/1999/xlink" x="0px" y="0px"
	 viewBox="0 0 755 91" style="enable-background:new 0 0 755 91;" xml:space="preserve">
<style type="text/css">
	.st0{fill:#FFFFFF;}
</style>
<g>
	<path id="E_4_" class="st0" d="M36.1,67.7c0.3,0.3,0.4,0.7,0.4,1c0,0.5-0.1,0.8-0.4,1.1c-0.3,0.3-0.7,0.4-1.1,0.4H5.6
		c-0.4,0-0.8-0.2-1-0.5c-0.3-0.3-0.5-0.6-0.5-1V17.2c0-0.4,0.1-0.8,0.5-1c0.3-0.3,0.6-0.5,1-0.5h29.5c0.4,0,0.8,0.1,1.1,0.5
		c0.3,0.3,0.4,0.7,0.4,1c0,0.5-0.1,0.8-0.4,1.1c-0.3,0.3-0.7,0.4-1.1,0.4H7.3v21.8h24.3c0.4,0,0.8,0.2,1.1,0.5
		c0.3,0.3,0.4,0.7,0.4,1c0,0.5-0.1,0.8-0.4,1.1c-0.3,0.3-0.7,0.4-1.1,0.4H7.3v23.6H35C35.5,67.3,35.8,67.4,36.1,67.7z M21,11.6
		c-0.1-0.2-0.2-0.4-0.2-0.6c0-0.4,0.2-0.8,0.7-1.1l7.1-5.2c0.5-0.4,1-0.6,1.7-0.6c0.5,0,1,0.2,1.4,0.5C32,5,32.2,5.4,32.2,6
		c0,0.8-0.4,1.5-1.1,1.9l-7.6,3.6c-0.7,0.4-1.3,0.5-1.7,0.5C21.3,11.9,21.1,11.8,21,11.6z"/>
	<path id="T" class="st0" d="M62.6,31.5c0.3,0.3,0.5,0.6,0.5,1s-0.1,0.7-0.4,1c-0.3,0.3-0.6,0.4-1,0.4H53v27.8
		c0,2.3,0.4,3.9,1.3,4.6c0.8,0.7,1.9,1.1,3.1,1.1c0.2,0,0.5,0,0.9-0.2c0.4-0.1,0.7-0.2,0.9-0.2c0.3,0,0.6,0.1,0.9,0.4
		c0.2,0.3,0.4,0.6,0.4,0.9c0,0.5-0.3,0.8-0.9,1.3c-0.6,0.4-1.4,0.5-2.2,0.5c-1.4,0-2.4-0.1-3.2-0.3c-0.9-0.2-1.8-0.8-2.8-2.1
		c-0.9-1-1.4-3-1.4-5.7V34h-6.4c-0.4,0-0.7-0.1-1-0.4c-0.3-0.3-0.4-0.6-0.4-1c0-0.4,0.1-0.7,0.4-1c0.3-0.3,0.6-0.4,1-0.4H50v-9.9
		c0-0.4,0.2-0.8,0.5-1c0.3-0.3,0.6-0.5,1-0.5c0.5,0,0.8,0.2,1.1,0.5s0.4,0.7,0.4,1V31h8.7C61.9,31.1,62.3,31.2,62.6,31.5z"/>
	<path id="U_1_" class="st0" d="M102.3,31.8c0.3,0.3,0.4,0.7,0.4,1.1v22.7c0,5-1.4,8.8-4.2,11.3c-2.8,2.6-6.6,3.9-11.4,3.9
		s-8.5-1.3-11.4-3.9c-2.8-2.6-4.2-6.4-4.2-11.3V33c0-0.4,0.1-0.8,0.4-1.1c0.3-0.3,0.6-0.4,1.1-0.4c0.4,0,0.8,0.1,1.1,0.4
		c0.3,0.3,0.4,0.7,0.4,1.1v22.7c0,4,1,6.9,3.2,9.1c2.2,2.1,5.2,3.1,9.1,3.1c4,0,7-1,9.2-3.1s3.2-5.1,3.2-9.1V33
		c0-0.4,0.1-0.8,0.4-1.1c0.3-0.3,0.6-0.4,1.1-0.4C101.6,31.4,102,31.5,102.3,31.8z"/>
	<path id="D" class="st0" d="M148.8,13c0.3,0.3,0.4,0.7,0.4,1v54.7c0,0.4-0.1,0.8-0.4,1.1c-0.3,0.3-0.7,0.4-1.1,0.4
		c-0.4,0-0.8-0.1-1.1-0.4s-0.4-0.6-0.4-1.1v-7.4c-1.3,2.8-3.2,5.1-5.9,7s-5.7,2.8-9.1,2.8c-3.4,0-6.5-0.9-9.3-2.7s-4.9-4.3-6.6-7.4
		c-1.6-3.1-2.4-6.6-2.4-10.5s0.8-7.3,2.4-10.4c1.6-3.1,3.8-5.5,6.6-7.3c2.7-1.8,5.8-2.7,9.3-2.7c3.2,0,6.3,0.9,9,2.7
		c2.7,1.9,4.8,4.2,6,7.1V14.1c0-0.4,0.1-0.8,0.4-1c0.3-0.3,0.6-0.5,1.1-0.5C148.2,12.5,148.5,12.7,148.8,13z M139.1,65.9
		c2.3-1.6,4.1-3.6,5.4-6.3c1.3-2.7,2-5.7,2-9.1s-0.6-6.4-2-9s-3.1-4.7-5.4-6.3c-2.3-1.5-4.9-2.3-7.8-2.3c-2.8,0-5.4,0.7-7.7,2.3
		c-2.3,1.6-4.2,3.6-5.5,6.3c-1.4,2.7-2,5.6-2,9c0,3.3,0.6,6.4,2,9c1.4,2.7,3.1,4.8,5.4,6.3c2.3,1.6,4.9,2.3,7.7,2.3
		C134.2,68.2,136.8,67.5,139.1,65.9z"/>
	<path id="I_1_" class="st0" d="M161.8,24.1c-0.5-0.5-0.7-1-0.7-1.8v-0.6c0-0.7,0.2-1.4,0.8-1.8c0.5-0.5,1.1-0.7,2-0.7
		c0.7,0,1.4,0.2,1.9,0.7c0.5,0.4,0.7,1,0.7,1.8v0.6c0,0.7-0.2,1.4-0.7,1.8c-0.5,0.5-1.1,0.7-1.9,0.7C163,24.9,162.3,24.5,161.8,24.1
		z M164.9,69.9c-0.3,0.3-0.7,0.4-1,0.4c-0.5,0-0.8-0.1-1.1-0.4s-0.4-0.6-0.4-1.1V31.6c0-0.4,0.1-0.8,0.4-1c0.3-0.3,0.6-0.5,1.1-0.5
		c0.4,0,0.8,0.2,1.1,0.5s0.4,0.7,0.4,1v37.1C165.4,69.3,165.2,69.6,164.9,69.9z"/>
	<path id="A_1_" class="st0" d="M211.5,31.8c0.3,0.3,0.4,0.7,0.4,1.1v35.9c0,0.4-0.1,0.8-0.4,1.1c-0.3,0.3-0.7,0.4-1.1,0.4
		c-0.4,0-0.8-0.1-1.1-0.4s-0.4-0.6-0.4-1.1v-7.1c-1.4,2.7-3.3,4.9-6,6.7s-5.7,2.7-9,2.7c-3.4,0-6.6-0.9-9.3-2.7
		c-2.8-1.8-4.9-4.3-6.5-7.4c-1.6-3.1-2.4-6.7-2.4-10.6s0.8-7.3,2.4-10.4c1.6-3.1,3.8-5.5,6.6-7.3c2.7-1.8,5.8-2.6,9.3-2.6
		c3.3,0,6.5,0.9,9.2,2.7c2.7,1.8,4.7,4.2,5.8,7.1v-7c0-0.4,0.1-0.8,0.4-1.1c0.3-0.3,0.6-0.4,1.1-0.4
		C210.7,31.4,211.2,31.5,211.5,31.8z M201.7,65.9c2.3-1.6,4.2-3.6,5.4-6.4c1.3-2.7,2-5.7,2-9.1c0-3.1-0.6-6-2-8.8
		c-1.4-2.6-3.1-4.8-5.4-6.3c-2.3-1.6-4.9-2.3-7.8-2.3c-2.9,0-5.4,0.7-7.8,2.2c-2.3,1.5-4.2,3.5-5.4,6.2c-1.4,2.6-2,5.6-2,9
		c0,3.3,0.6,6.4,2,9.1c1.3,2.7,3.1,4.8,5.4,6.4c2.3,1.6,4.9,2.3,7.8,2.3C196.8,68.2,199.4,67.5,201.7,65.9z"/>
	<path id="N_1_" class="st0" d="M253.1,34.2c2.4,2.7,3.5,6.3,3.5,10.6v23.9c0,0.4-0.1,0.8-0.4,1.1c-0.3,0.3-0.7,0.4-1.1,0.4
		c-0.4,0-0.8-0.1-1.1-0.4s-0.4-0.6-0.4-1.1V45.2c0-3.5-0.9-6.5-2.8-8.8c-1.9-2.3-4.7-3.4-8.4-3.4c-2.3,0-4.6,0.5-6.8,1.7
		c-2.2,1-4.1,2.6-5.4,4.5c-1.5,1.9-2.1,3.9-2.1,6v23.6c0,0.4-0.1,0.8-0.5,1.1c-0.3,0.3-0.7,0.4-1,0.4c-0.5,0-0.8-0.1-1.1-0.4
		s-0.4-0.6-0.4-1.1V32.9c0-0.4,0.1-0.8,0.4-1.1c0.3-0.3,0.6-0.4,1.1-0.4c0.4,0,0.8,0.1,1.1,0.4s0.4,0.7,0.4,1.1v5.2
		c1.5-2.4,3.6-4.3,6.4-5.7c2.7-1.5,5.5-2.3,8.2-2.3C247.2,30.2,250.8,31.5,253.1,34.2z"/>
	<path id="T_1_" class="st0" d="M285.2,31.5c0.3,0.3,0.5,0.6,0.5,1s-0.1,0.7-0.4,1s-0.6,0.4-1,0.4h-8.7v27.8c0,2.3,0.4,3.9,1.3,4.6
		c0.8,0.7,1.9,1.1,3.1,1.1c0.2,0,0.5,0,0.9-0.2c0.4-0.1,0.7-0.2,0.9-0.2c0.3,0,0.6,0.1,0.9,0.4c0.2,0.3,0.4,0.6,0.4,0.9
		c0,0.5-0.3,0.8-0.9,1.3c-0.6,0.4-1.4,0.5-2.2,0.5c-1.4,0-2.4-0.1-3.2-0.3c-0.9-0.2-1.8-0.8-2.8-2.1c-0.9-1.3-1.5-3.2-1.5-5.9v-28
		h-6.4c-0.4,0-0.7-0.1-1-0.4c-0.3-0.3-0.4-0.6-0.4-1c0-0.4,0.1-0.7,0.4-1s0.6-0.4,1-0.4h6.4v-9.9c0-0.4,0.2-0.8,0.5-1
		c0.3-0.3,0.6-0.5,1-0.5c0.5,0,0.8,0.2,1.1,0.5c0.3,0.3,0.4,0.7,0.4,1V31h8.7C284.5,31.1,284.9,31.2,285.2,31.5z"/>
	<path id="D_2_" class="st0" d="M348.6,13c0.3,0.3,0.4,0.7,0.4,1v54.7c0,0.4-0.1,0.8-0.4,1.1c-0.3,0.3-0.7,0.4-1.1,0.4
		s-0.8-0.1-1.1-0.4c-0.3-0.3-0.4-0.6-0.4-1.1v-7.4c-1.3,2.8-3.2,5.1-5.9,7c-2.7,1.9-5.7,2.8-9.1,2.8s-6.5-0.9-9.3-2.7
		s-4.9-4.3-6.6-7.4c-1.6-3.1-2.4-6.6-2.4-10.5s0.8-7.3,2.4-10.4s3.8-5.5,6.6-7.3c2.7-1.8,5.8-2.7,9.3-2.7c3.2,0,6.3,0.9,9,2.7
		c2.7,1.9,4.8,4.2,6,7.1V14.1c0-0.4,0.1-0.8,0.4-1c0.3-0.3,0.6-0.5,1.1-0.5C347.8,12.5,348.3,12.7,348.6,13z M338.8,65.9
		c2.3-1.6,4.1-3.6,5.4-6.3s2-5.7,2-9.1s-0.6-6.4-2-9s-3.1-4.7-5.4-6.3c-2.3-1.5-4.9-2.3-7.8-2.3c-2.8,0-5.4,0.7-7.7,2.3
		c-2.3,1.6-4.2,3.6-5.5,6.3c-1.4,2.7-2,5.6-2,9c0,3.3,0.6,6.4,2,9c1.4,2.7,3.1,4.8,5.4,6.3c2.3,1.6,4.9,2.3,7.7,2.3
		C333.9,68.2,336.5,67.5,338.8,65.9z"/>
	<path id="E_1_" class="st0" d="M393.7,61.4c0.3,0.3,0.4,0.6,0.4,0.9c0,0.4-0.1,0.7-0.3,0.9c-1.8,2.3-3.9,4.2-6.5,5.6
		c-2.6,1.5-5.3,2.2-8.2,2.2c-4,0-7.4-0.8-10.4-2.5s-5.4-4.1-7.1-7.1s-2.5-6.7-2.5-10.7c0-4.2,0.8-7.8,2.5-10.9s3.9-5.5,6.6-7.2
		s5.6-2.5,8.7-2.5c3,0,5.9,0.6,8.5,2c2.6,1.4,4.8,3.3,6.5,5.9c1.7,2.7,2.5,5.9,2.6,9.9c0,0.4-0.2,0.8-0.5,1.1s-0.7,0.5-1,0.5h-30.8
		v1c0,3.2,0.6,6.2,2,8.9c1.3,2.7,3.2,4.8,5.8,6.4c2.5,1.6,5.6,2.4,9.2,2.4c2.5,0,4.9-0.6,7.1-1.9s4-2.8,5.2-4.7
		c0.3-0.5,0.8-0.7,1.4-0.7C393.2,61,393.5,61.1,393.7,61.4z M371,34.8c-2,1-3.8,2.5-5.3,4.5c-1.6,2-2.6,4.5-3.1,7.3h28.8v-0.7
		c-0.3-2.6-1.1-4.9-2.5-6.9c-1.5-1.9-3.2-3.3-5.3-4.4c-2.1-0.9-4.3-1.5-6.6-1.5C374.9,33.3,373,33.8,371,34.8z M375.4,27.5
		c-0.2-0.2-0.2-0.4-0.2-0.6c0-0.3,0.1-0.6,0.4-1l4.8-7.3c0.5-0.8,1.1-1.3,2.1-1.3c0.5,0,1,0.2,1.5,0.5c0.4,0.3,0.6,0.8,0.6,1.5
		c0,0.4-0.2,0.8-0.5,1.4l-5.8,6c-0.8,0.8-1.5,1.1-2.1,1.1C375.8,27.7,375.6,27.7,375.4,27.5z"/>
	<path id="V_1_" class="st0" d="M434.9,30.4c0.3,0.2,0.5,0.5,0.5,0.9c0,0.3-0.1,0.6-0.2,0.9l-15.5,37.2c-0.1,0.3-0.3,0.5-0.6,0.7
		c-0.3,0.2-0.6,0.3-0.9,0.3s-0.6-0.1-0.9-0.3c-0.3-0.2-0.5-0.4-0.6-0.7l-15.6-37.1c-0.1-0.3-0.2-0.5-0.2-0.7c0-0.4,0.1-0.8,0.4-1
		c0.3-0.3,0.7-0.5,1.3-0.5c0.3,0,0.5,0.1,0.8,0.3c0.3,0.2,0.5,0.4,0.6,0.7l14.2,34l14.3-34c0.3-0.7,0.8-1,1.7-1
		C434.3,30,434.6,30.1,434.9,30.4z"/>
	<path id="E_3_" class="st0" d="M476.3,61.4c0.3,0.3,0.4,0.6,0.4,0.9c0,0.4-0.1,0.7-0.3,0.9c-1.8,2.3-3.9,4.2-6.5,5.6
		c-2.6,1.5-5.3,2.2-8.2,2.2c-4,0-7.4-0.8-10.4-2.5s-5.4-4.1-7.1-7.1s-2.5-6.7-2.5-10.7c0-4.2,0.8-7.8,2.5-10.9s3.9-5.5,6.6-7.2
		s5.6-2.5,8.7-2.5s5.9,0.6,8.5,2c2.6,1.4,4.8,3.3,6.5,5.9c1.7,2.7,2.5,5.9,2.6,9.9c0,0.4-0.2,0.8-0.5,1.1s-0.7,0.5-1,0.5h-30.8v1
		c0,3.2,0.6,6.2,2,8.9c1.3,2.7,3.2,4.8,5.7,6.4c2.5,1.6,5.6,2.4,9.2,2.4c2.5,0,4.9-0.6,7.1-1.9s4-2.8,5.2-4.7
		c0.3-0.5,0.8-0.7,1.4-0.7C475.8,61,476.1,61.1,476.3,61.4z M453.6,34.8c-2,1-3.8,2.5-5.3,4.5c-1.6,2-2.6,4.5-3.1,7.3H474v-0.7
		c-0.3-2.6-1.1-4.9-2.5-6.9c-1.5-1.9-3.2-3.3-5.3-4.4c-2.1-0.9-4.3-1.5-6.6-1.5C457.5,33.3,455.5,33.8,453.6,34.8z"/>
	<path id="L_1_" class="st0" d="M490.4,69.9c-0.3,0.3-0.7,0.4-1.1,0.4s-0.8-0.1-1.1-0.4c-0.3-0.3-0.4-0.6-0.4-1.1V14.1
		c0-0.4,0.2-0.8,0.5-1c0.3-0.3,0.6-0.5,1-0.5c0.5,0,0.8,0.2,1.1,0.5c0.3,0.3,0.4,0.7,0.4,1v54.7C490.9,69.3,490.7,69.6,490.4,69.9z"
		/>
	<path id="O_1_" class="st0" d="M536.8,61.1c-1.7,3.1-4,5.5-6.9,7.3s-6.3,2.7-9.8,2.7s-6.9-0.9-9.8-2.7c-2.9-1.8-5.3-4.3-7-7.4
		c-1.7-3.1-2.5-6.6-2.5-10.4s0.8-7.3,2.5-10.4c1.7-3.1,4-5.6,6.9-7.4c2.9-1.8,6.3-2.7,9.9-2.7s6.9,0.9,9.8,2.7
		c2.9,1.8,5.2,4.3,6.9,7.4s2.5,6.6,2.5,10.4S538.4,58,536.8,61.1z M534,41.7c-1.4-2.6-3.3-4.8-5.7-6.3c-2.5-1.6-5.2-2.3-8.3-2.3
		c-3,0-5.7,0.7-8.2,2.3s-4.4,3.6-5.8,6.3c-1.5,2.6-2.1,5.6-2.1,9c0,3.2,0.7,6.3,2.1,8.9c1.4,2.7,3.3,4.8,5.8,6.3
		c2.5,1.6,5.2,2.3,8.2,2.3s5.8-0.7,8.3-2.3c2.4-1.6,4.4-3.6,5.7-6.3c1.4-2.7,2.1-5.6,2.1-9C536.1,47.4,535.5,44.3,534,41.7z"/>
	<path id="P_1_" class="st0" d="M577,33.5c2.7,1.7,4.9,4.1,6.5,7.1s2.4,6.5,2.4,10.2S585,58,583.5,61c-1.6,3-3.8,5.4-6.6,7.2
		c-2.8,1.8-5.8,2.6-9.2,2.6c-3.1,0-6-0.8-8.7-2.4c-2.6-1.6-4.8-3.8-6.5-6.7v22.6c0,0.4-0.1,0.8-0.4,1.1c-0.3,0.3-0.6,0.4-1.1,0.4
		c-0.4,0-0.8-0.1-1-0.4c-0.3-0.3-0.5-0.7-0.5-1.1v-52c0-0.4,0.1-0.8,0.4-1c0.3-0.3,0.6-0.5,1.1-0.5s0.8,0.2,1.1,0.5s0.4,0.7,0.4,1
		v7.2c1.6-2.9,3.6-5.2,6.3-6.6c2.6-1.5,5.5-2.2,8.8-2.2C571.1,30.9,574.2,31.7,577,33.5z M575.2,65.7c2.3-1.5,4.1-3.4,5.4-6
		c1.4-2.6,2-5.5,2-8.8c0-3.2-0.6-6.2-2-8.8s-3.1-4.6-5.4-6c-2.3-1.5-4.9-2.2-7.7-2.2c-2.9,0-5.5,0.7-7.8,2.2s-4.2,3.4-5.4,6
		s-1.9,5.5-1.9,8.8s0.6,6.3,1.9,8.8c1.3,2.6,3,4.6,5.4,6c2.3,1.5,4.9,2.2,7.8,2.2C570.3,67.9,572.9,67.2,575.2,65.7z"/>
	<path id="P" class="st0" d="M623.5,33.5c2.7,1.7,4.9,4.1,6.5,7.1s2.4,6.5,2.4,10.2S631.5,58,630,61c-1.6,3-3.8,5.4-6.6,7.2
		c-2.8,1.8-5.8,2.6-9.2,2.6c-3.1,0-6-0.8-8.7-2.4c-2.6-1.6-4.8-3.8-6.5-6.7v22.6c0,0.4-0.1,0.8-0.4,1.1c-0.3,0.3-0.6,0.4-1.1,0.4
		c-0.4,0-0.8-0.1-1-0.4c-0.3-0.3-0.5-0.7-0.5-1.1v-52c0-0.4,0.1-0.8,0.4-1c0.3-0.3,0.6-0.5,1.1-0.5s0.8,0.2,1.1,0.5s0.4,0.7,0.4,1
		v7.2c1.6-2.9,3.6-5.2,6.3-6.6c2.6-1.5,5.5-2.2,8.8-2.2C617.7,30.9,620.7,31.7,623.5,33.5z M621.7,65.7c2.3-1.5,4.1-3.4,5.4-6
		c1.4-2.6,2-5.5,2-8.8c0-3.2-0.6-6.2-2-8.8s-3.1-4.6-5.4-6c-2.3-1.5-4.9-2.2-7.7-2.2c-2.9,0-5.5,0.7-7.8,2.2s-4.2,3.4-5.4,6
		s-1.9,5.5-1.9,8.8s0.6,6.3,1.9,8.8c1.3,2.6,3,4.6,5.4,6c2.3,1.5,4.9,2.2,7.8,2.2S619.4,67.2,621.7,65.7z"/>
	<path id="E" class="st0" d="M674.4,61.4c0.3,0.3,0.4,0.6,0.4,0.9c0,0.4-0.1,0.7-0.3,0.9c-1.8,2.3-3.9,4.2-6.5,5.6
		c-2.6,1.5-5.3,2.2-8.2,2.2c-4,0-7.4-0.8-10.4-2.5s-5.4-4.1-7.1-7.1c-1.7-3-2.5-6.7-2.5-10.7c0-4.2,0.8-7.8,2.5-10.9
		s3.9-5.5,6.6-7.2c2.7-1.7,5.6-2.5,8.7-2.5s5.9,0.6,8.5,2c2.6,1.4,4.8,3.3,6.5,5.9c1.7,2.7,2.5,5.9,2.6,9.9c0,0.4-0.2,0.8-0.5,1.1
		s-0.7,0.5-1,0.5h-30.8v1c0,3.2,0.6,6.2,2,8.9c1.3,2.7,3.2,4.8,5.7,6.4s5.6,2.4,9.2,2.4c2.5,0,4.9-0.6,7.1-1.9
		c2.2-1.3,4-2.8,5.2-4.7c0.3-0.5,0.8-0.7,1.4-0.7C673.9,61,674.2,61.1,674.4,61.4z M651.7,34.8c-2,1-3.8,2.5-5.3,4.5
		c-1.6,2-2.6,4.5-3.1,7.3H672v-0.7c-0.3-2.6-1.1-4.9-2.5-6.9c-1.5-1.9-3.2-3.3-5.3-4.4c-2.1-0.9-4.3-1.5-6.6-1.5
		C655.6,33.3,653.6,33.8,651.7,34.8z"/>
	<path id="U" class="st0" d="M716.1,31.8c0.3,0.3,0.4,0.7,0.4,1.1v22.7c0,5-1.4,8.8-4.2,11.3s-6.6,3.9-11.4,3.9s-8.5-1.3-11.4-3.9
		c-2.8-2.6-4.2-6.4-4.2-11.3V33c0-0.4,0.2-0.8,0.5-1.1c0.3-0.3,0.6-0.4,1-0.4c0.5,0,0.8,0.1,1.1,0.4c0.3,0.3,0.4,0.7,0.4,1.1v22.7
		c0,4,1.1,6.9,3.3,9.1c2.2,2.1,5.2,3.1,9.1,3.1c4,0,7-1,9.2-3.1s3.3-5.1,3.3-9.1V33c0-0.4,0.1-0.8,0.4-1.1c0.3-0.3,0.6-0.4,1.1-0.4
		S715.8,31.5,716.1,31.8z"/>
	<path id="R" class="st0" d="M746.4,32.9c-0.1,0-0.1,0-0.2,0c-2.2,0-4.3,0.8-6.4,2.5c-2.2,1.7-3.9,3.9-5.2,6.5s-2.1,5.1-2.1,7.5V69
		c0,0.4-0.1,0.8-0.4,1.1c-0.3,0.3-0.7,0.4-1.1,0.4s-0.8-0.1-1.1-0.4s-0.4-0.6-0.4-1.1V33.1c0-0.4,0.2-0.8,0.5-1.1
		c0.3-0.3,0.6-0.4,1-0.4c0.5,0,0.8,0.1,1.1,0.4s0.4,0.7,0.4,1.1v8.2c1.3-3.1,3-5.8,5.6-7.9c2.5-2.1,5.5-3.1,9-3.2
		c2.4,0,3.6,0.6,3.6,1.8c0,0.3-0.1,0.6-0.2,0.9 M750.5,32.9c0,0.1-0.1,0.2-0.2,0.2c-0.3,0.3-0.6,0.5-1,0.5c-0.2,0-0.5-0.1-1.1-0.3
		c-0.5-0.2-1.1-0.3-1.8-0.3"/>
</g>
</svg>
