<?xml version="1.0" encoding="utf-8"?>
<!-- Generator: Adobe Illustrator 21.1.0, SVG Export Plug-In . SVG Version: 6.00 Build 0)  -->
<svg version="1.1" id="Calque_1" xmlns="http://www.w3.org/2000/svg" xmlns:xlink="http://www.w3.org/1999/xlink" x="0px" y="0px"
	 viewBox="0 0 952 122" style="enable-background:new 0 0 952 122;" xml:space="preserve">
<style type="text/css">
	.st0{fill:#FFFFFF;}
</style>
<path id="M" class="st0" d="M95.5,11c0.5,0.6,0.8,1.2,0.8,2v99c0,0.8-0.3,1.5-1,2.1s-1.4,0.9-2.2,0.9c-0.9,0-1.7-0.3-2.3-0.9
	c-0.6-0.6-0.9-1.3-0.9-2.1V22.3L51.2,80.8C50.7,81.6,50,82,49.1,82c-1.1,0-1.9-0.4-2.4-1.2L7.8,22.2V112c0,0.8-0.3,1.5-0.9,2.1
	S5.6,115,4.8,115c-0.9,0-1.6-0.3-2.2-0.9s-0.8-1.3-0.8-2.1V13c0-0.7,0.3-1.4,0.8-2s1.2-1,2-1c1.3,0,2.3,0.5,2.9,1.4L49,73.2
	l41.5-61.8c0.8-1.1,1.7-1.5,2.9-1.4C94.3,10.1,95,10.4,95.5,11z"/>
<path id="A" class="st0" d="M187.2,41c0.5,0.6,0.8,1.3,0.8,2.1V112c0,0.8-0.3,1.5-0.9,2.1s-1.3,0.9-2.1,0.9c-0.9,0-1.6-0.3-2.2-0.9
	c-0.6-0.6-0.8-1.3-0.8-2.1V98.5c-2.5,5.1-6.4,9.4-11.5,12.8c-5.2,3.4-11,5.2-17.3,5.2c-6.6,0-12.6-1.7-17.9-5.2
	c-5.3-3.5-9.4-8.2-12.4-14.3c-3-6-4.5-12.8-4.5-20.3c0-7.4,1.5-14.1,4.6-20c3-5.9,7.2-10.6,12.5-14c5.3-3.3,11.2-5,17.7-5
	s12.3,1.7,17.5,5.1s8.9,7.9,11.3,13.6V43c0-0.8,0.3-1.5,0.8-2.1s1.3-0.9,2.2-0.9C185.9,40.1,186.7,40.4,187.2,41z M168.5,106.4
	c4.4-2.9,7.9-7,10.4-12.2s3.8-11,3.8-17.4c0-6.1-1.3-11.7-3.8-16.8s-6-9.1-10.4-12.1c-4.5-2.9-9.4-4.4-14.9-4.4s-10.5,1.4-14.9,4.3
	c-4.5,2.9-7.9,6.8-10.4,11.9c-2.5,5.1-3.8,10.8-3.8,17.2s1.2,12.2,3.8,17.4c2.5,5.2,5.9,9.3,10.3,12.2c4.4,3,9.4,4.4,15,4.4
	C159,110.8,164,109.3,168.5,106.4z"/>
<path id="T_1_" class="st0" d="M242.8,40.4c0.6,0.6,0.9,1.3,0.9,1.9c0,0.8-0.3,1.5-0.8,2c-0.6,0.6-1.2,0.8-2,0.8h-16.5v53.4
	c0,4.4,0.8,7.3,2.3,8.8s3.5,2.2,5.9,2.2c0.4,0,1-0.1,1.7-0.3c0.8-0.2,1.4-0.3,1.9-0.3c0.7,0,1.3,0.3,1.8,0.8
	c0.5,0.6,0.8,1.2,0.8,1.9c0,0.9-0.6,1.7-1.8,2.3c-1.2,0.7-2.6,1-4.2,1c-2.5,0-4.6-0.2-6.3-0.5s-3.5-1.7-5.3-4.1
	c-1.9-2.3-2.8-6.2-2.8-11.5V45.1h-12.3c-0.7,0-1.3-0.3-1.9-0.9s-0.9-1.2-0.9-2s0.3-1.5,0.8-2s1.2-0.8,2-0.8h12.3v-19
	c0-0.8,0.3-1.5,0.9-2.1s1.3-0.9,2.1-0.9c0.9,0,1.6,0.3,2.2,0.9c0.5,0.6,0.8,1.3,0.8,2.1v19h16.5C241.5,39.5,242.2,39.8,242.8,40.4z"
	/>
<path id="H" class="st0" d="M312.8,47.4c4.6,5.5,6.9,12.4,6.9,20.8V112c0,0.8-0.3,1.5-0.9,2.1s-1.3,0.9-2.1,0.9
	c-0.9,0-1.6-0.3-2.2-0.9s-0.8-1.3-0.8-2.1V68.2c0-6.9-1.7-12.5-5.1-16.8C305.2,47.1,300,45,293,45c-4.3,0-8.5,1-12.7,3.1
	s-7.5,4.9-10.1,8.5s-3.9,7.5-3.9,11.6V112c0,0.8-0.3,1.5-0.9,2.1s-1.3,0.9-2.1,0.9c-0.9,0-1.6-0.3-2.2-0.9s-0.8-1.3-0.8-2.1V7
	c0-0.8,0.3-1.5,0.9-2.1s1.3-0.9,2.1-0.9c0.9,0,1.6,0.3,2.2,0.9c0.5,0.6,0.8,1.3,0.8,2.1v47.4c2.8-4.4,6.7-8,11.6-10.9
	s10-4.3,15.1-4.3C301.6,39.2,308.2,42,312.8,47.4z"/>
<path id="I" class="st0" d="M343.8,26.2c-1-0.9-1.4-2-1.4-3.5v-1.2c0-1.4,0.5-2.5,1.5-3.4s2.3-1.4,3.9-1.4c1.4,0,2.6,0.5,3.5,1.4
	s1.4,2.1,1.4,3.4v1.2c0,1.4-0.5,2.5-1.4,3.5c-1,0.9-2.2,1.3-3.7,1.3C346,27.5,344.8,27.1,343.8,26.2z M349.7,114.1
	c-0.6,0.6-1.3,0.9-2.1,0.9c-0.9,0-1.6-0.3-2.2-0.9s-0.8-1.3-0.8-2.1V40.7c0-0.8,0.3-1.5,0.9-2.1s1.3-0.9,2.1-0.9
	c0.9,0,1.6,0.3,2.2,0.9c0.5,0.6,0.8,1.3,0.8,2.1V112C350.6,112.8,350.3,113.5,349.7,114.1z"/>
<path id="E_1_" class="st0" d="M436.6,97.8c0.5,0.6,0.8,1.2,0.8,1.9s-0.2,1.3-0.6,1.8c-3.3,4.4-7.4,8-12.3,10.8s-10.2,4.2-15.8,4.2
	c-7.5,0-14.2-1.6-20-4.8S378.4,104,375.1,98c-3.3-5.9-4.9-12.8-4.9-20.5c0-8,1.6-15,4.7-21.1c3.2-6,7.3-10.7,12.5-13.9
	s10.7-4.8,16.6-4.8s11.4,1.3,16.4,3.8s9.2,6.4,12.4,11.5s4.9,11.4,5.1,18.9c0,0.8-0.3,1.5-0.9,2.2s-1.3,1-2.1,1h-59V77
	c0,6.2,1.2,11.9,3.8,17c2.5,5.2,6.2,9.2,11.1,12.2s10.8,4.5,17.7,4.5c4.8,0,9.3-1.2,13.6-3.5c4.2-2.3,7.6-5.3,10-8.9
	c0.7-0.9,1.5-1.4,2.6-1.4C435.5,97,436.1,97.3,436.6,97.8z M392.9,46.7c-3.9,2-7.3,4.9-10.2,8.7c-3,3.9-4.9,8.5-5.9,14H432V68
	c-0.5-5.1-2.1-9.5-4.9-13.1s-6.1-6.4-10.2-8.3c-4-1.9-8.3-2.9-12.7-2.9C400.5,43.7,396.7,44.7,392.9,46.7z"/>
<path id="U" class="st0" d="M516.5,41c0.5,0.6,0.8,1.3,0.8,2.1v43.6c0,9.5-2.7,16.7-8,21.7c-5.4,5-12.6,7.4-21.8,7.4
	s-16.5-2.5-21.8-7.4c-5.3-5-7.9-12.2-7.9-21.7V43.1c0-0.8,0.3-1.5,0.9-2.1s1.3-0.9,2.1-0.9c0.9,0,1.6,0.3,2.2,0.9
	c0.5,0.6,0.8,1.3,0.8,2.1v43.6c0,7.5,2.1,13.3,6.3,17.3s10,6.1,17.4,6.1c7.5,0,13.3-2,17.5-6.1s6.3-9.8,6.3-17.3V43.1
	c0-0.8,0.3-1.5,0.8-2.1s1.3-0.9,2.2-0.9S515.9,40.4,516.5,41z"/>
<path id="C" class="st0" d="M664.3,21.1c0,0.8-0.2,1.5-0.6,1.9c-0.6,0.8-1.4,1.2-2.3,1.2c-0.4,0-1-0.2-1.8-0.6
	c-9.3-6.3-19.2-9.4-29.6-9.4c-8.4,0-16.1,2.1-23.2,6.2c-7,4.2-12.6,9.9-16.7,17.3s-6.2,15.6-6.2,24.8s2,17.5,6.2,24.8
	c4.1,7.3,9.7,13.1,16.7,17.3s14.8,6.2,23.2,6.2c10.5,0,20.3-3.1,29.4-9.3c0.5-0.4,1.1-0.6,1.8-0.6c1,0,1.8,0.4,2.4,1.2
	c0.4,0.5,0.6,1.1,0.6,1.8c0,1-0.4,1.8-1.2,2.4c-3.9,2.8-8.9,5.2-15.1,7.2s-12.1,3-17.9,3c-9.5,0-18.3-2.3-26.3-7s-14.4-11.2-19-19.4
	c-4.7-8.3-7-17.4-7-27.5s2.3-19.3,7-27.5c4.7-8.3,11-14.7,19-19.4s16.7-7,26.3-7c6,0,11.8,0.9,17.5,2.7c5.6,1.8,10.8,4.3,15.4,7.5
	C663.8,19.4,664.3,20.2,664.3,21.1z"/>
<path id="O" class="st0" d="M745.9,97.2c-3.2,6-7.6,10.6-13.3,14.1c-5.7,3.4-11.9,5.2-18.8,5.2s-13.2-1.7-18.8-5.2
	c-5.7-3.5-10.1-8.2-13.3-14.2c-3.3-6-4.9-12.6-4.9-19.9c0-7.4,1.6-14.1,4.9-20.1c3.2-6,7.7-10.7,13.3-14.2
	c5.6-3.4,11.9-5.2,18.9-5.2c6.9,0,13.2,1.7,18.8,5.2s10.1,8.2,13.3,14.2s4.8,12.7,4.8,20.1C750.7,84.6,749.1,91.3,745.9,97.2z
	 M740.7,59.9c-2.7-5.1-6.3-9.1-11-12.1c-4.7-2.9-10-4.4-15.9-4.4c-5.8,0-11.1,1.5-15.8,4.4c-4.8,3-8.5,7-11.2,12.1s-4,10.9-4,17.3
	c0,6.3,1.3,12,4,17.1s6.4,9.1,11.2,12.1c4.7,3,10,4.4,15.8,4.4c5.9,0,11.2-1.4,15.9-4.3s8.4-6.9,11-12.1c2.6-5.1,4-10.9,4-17.2
	C744.7,70.8,743.4,65,740.7,59.9z"/>
<path id="L_1_" class="st0" d="M776.2,114.1c-0.6,0.6-1.3,0.9-2.1,0.9c-0.9,0-1.6-0.3-2.2-0.9c-0.6-0.6-0.8-1.3-0.8-2.1V7
	c0-0.8,0.3-1.5,0.9-2.1s1.3-0.9,2.1-0.9c0.9,0,1.6,0.3,2.2,0.9c0.5,0.6,0.8,1.3,0.8,2.1v105C777.1,112.8,776.8,113.5,776.2,114.1z"
	/>
<path id="L" class="st0" d="M808.6,114.1c-0.6,0.6-1.3,0.9-2.1,0.9c-0.9,0-1.6-0.3-2.2-0.9c-0.6-0.6-0.8-1.3-0.8-2.1V7
	c0-0.8,0.3-1.5,0.9-2.1s1.3-0.9,2.1-0.9c0.9,0,1.6,0.3,2.2,0.9c0.5,0.6,0.8,1.3,0.8,2.1v105C809.5,112.8,809.2,113.5,808.6,114.1z"
	/>
<path id="E" class="st0" d="M894.7,97.8c0.5,0.6,0.8,1.2,0.8,1.9s-0.2,1.3-0.6,1.8c-3.3,4.4-7.4,8-12.3,10.8s-10.2,4.2-15.8,4.2
	c-7.5,0-14.2-1.6-19.9-4.8c-5.8-3.2-10.3-7.7-13.6-13.7c-3.3-5.9-4.9-12.8-4.9-20.5c0-8,1.6-15,4.7-21.1c3.2-6,7.3-10.7,12.5-13.9
	s10.7-4.8,16.6-4.8s11.4,1.3,16.4,3.8s9.2,6.4,12.4,11.5s4.9,11.4,5.1,18.9c0,0.8-0.3,1.5-0.9,2.2s-1.3,1-2.1,1h-59V77
	c0,6.2,1.2,11.9,3.8,17c2.5,5.2,6.2,9.2,11.1,12.2s10.8,4.5,17.7,4.5c4.8,0,9.3-1.2,13.6-3.5c4.2-2.3,7.6-5.3,10-8.9
	c0.7-0.9,1.5-1.4,2.5-1.4C893.6,97,894.2,97.3,894.7,97.8z M851,46.7c-3.9,2-7.3,4.9-10.2,8.7c-3,3.9-4.9,8.5-5.9,14h55.2V68
	c-0.5-5.1-2.1-9.5-4.9-13.1s-6.1-6.4-10.2-8.3s-8.3-2.9-12.7-2.9C858.6,43.7,854.8,44.7,851,46.7z"/>
<path id="T" class="st0" d="M945.7,40.4c0.6,0.6,0.9,1.3,0.9,1.9c0,0.8-0.3,1.5-0.8,2c-0.6,0.6-1.2,0.8-2,0.8h-16.5v53.4
	c0,4.4,0.8,7.3,2.3,8.8s3.5,2.2,5.9,2.2c0.4,0,1-0.1,1.7-0.3c0.8-0.2,1.4-0.3,1.9-0.3c0.7,0,1.3,0.3,1.8,0.8
	c0.5,0.6,0.8,1.2,0.8,1.9c0,0.9-0.6,1.7-1.8,2.3c-1.2,0.7-2.6,1-4.2,1c-2.5,0-4.6-0.2-6.3-0.5s-3.5-1.7-5.3-4.1
	c-1.9-2.3-2.8-6.2-2.8-11.5V45.1H909c-0.7,0-1.3-0.3-2-0.9c-0.6-0.6-0.9-1.2-0.9-2s0.3-1.5,0.8-2s1.2-0.8,2-0.8h12.3v-19
	c0-0.8,0.3-1.5,0.9-2.1s1.3-0.9,2.1-0.9c0.9,0,1.6,0.3,2.2,0.9c0.5,0.6,0.8,1.3,0.8,2.1v19h16.5C944.4,39.5,945.1,39.8,945.7,40.4z"
	/>
</svg>
